<!DOCTYPE svg PUBLIC "-//W3C//DTD SVG 20010904//EN" "http://www.w3.org/TR/2001/REC-SVG-20010904/DTD/svg10.dtd">
<svg version="1.0" xmlns="http://www.w3.org/2000/svg" width="255px" height="248px" viewBox="0 0 2550 2480" preserveAspectRatio="xMidYMid meet">
<g id="layer101" fill="#373737" stroke="none">
 <path d="M200 2000 c-17 -17 -20 -33 -20 -108 0 -80 2 -91 23 -110 30 -29 62 -28 92 3 22 21 25 33 25 103 0 65 -4 84 -21 106 -25 32 -70 35 -99 6z m74 -36 c13 -33 6 -141 -9 -154 -32 -27 -45 -5 -45 78 0 43 3 82 7 85 12 13 41 7 47 -9z"/>
 <path d="M370 2000 c-19 -19 -20 -31 -18 -128 2 -87 6 -107 18 -107 12 0 16 21 20 105 5 104 5 105 30 105 25 0 25 -1 30 -105 4 -84 8 -105 20 -105 12 0 16 19 18 101 2 89 0 103 -18 127 -26 33 -71 36 -100 7z"/>
 <path d="M527 2014 c-4 -4 -7 -53 -7 -109 0 -88 3 -104 20 -123 27 -29 65 -28 96 3 24 24 25 30 22 127 -2 84 -6 103 -18 103 -10 0 -17 -13 -20 -40 -4 -34 -9 -40 -32 -43 -25 -3 -27 0 -30 39 -3 40 -16 58 -31 43z m91 -160 c3 -34 -18 -60 -43 -50 -10 3 -15 19 -15 46 0 39 1 41 28 38 22 -2 28 -9 30 -34z"/>
 <path d="M695 2008 c-3 -8 -4 -66 -3 -129 2 -93 6 -114 18 -114 13 0 15 20 15 124 0 91 -3 125 -12 128 -7 3 -15 -2 -18 -9z"/>
 <path d="M780 2000 c-11 -11 -20 -26 -20 -34 0 -26 22 -29 40 -6 11 15 23 21 34 17 25 -10 20 -22 -29 -77 -25 -29 -45 -61 -45 -73 0 -31 35 -67 65 -67 30 0 67 35 63 58 -5 25 -34 27 -41 2 -6 -24 -35 -27 -44 -4 -3 10 7 29 29 52 39 41 58 72 58 96 0 24 -37 56 -65 56 -14 0 -34 -9 -45 -20z"/>
 <path d="M1000 2006 c-1 -9 -1 -61 -1 -116 0 -55 0 -107 1 -115 0 -8 7 -15 15 -15 11 0 15 21 17 107 l3 108 30 5 c18 3 30 11 30 20 0 22 -95 28 -95 6z"/>
 <path d="M1120 1910 c0 -97 2 -112 20 -130 25 -25 61 -26 91 -1 23 18 24 26 24 127 0 94 -2 109 -17 112 -13 3 -17 -6 -20 -40 -3 -39 -6 -43 -30 -46 -25 -3 -28 0 -28 27 0 39 -9 61 -26 61 -11 0 -14 -23 -14 -110z m98 -56 c3 -34 -18 -60 -43 -50 -10 3 -15 19 -15 46 0 39 1 41 28 38 22 -2 28 -9 30 -34z"/>
 <path d="M1374 2007 c-2 -7 -3 -65 -2 -128 l3 -114 29 -3 c81 -10 110 31 104 146 -3 63 -7 77 -27 93 -27 22 -99 26 -107 6z m84 -39 c15 -15 16 -122 2 -149 -6 -10 -20 -19 -30 -19 -18 0 -20 7 -20 90 0 80 2 90 18 90 10 0 23 -5 30 -12z"/>
 <path d="M1540 1911 c0 -98 2 -113 20 -131 27 -27 66 -25 96 5 24 24 25 30 22 127 -3 89 -5 103 -20 106 -15 3 -18 -4 -18 -42 0 -44 -1 -46 -29 -46 -28 0 -30 3 -33 42 -2 31 -8 44 -20 46 -16 3 -18 -7 -18 -107z m98 -57 c3 -34 -18 -60 -43 -50 -10 3 -15 19 -15 46 0 39 1 41 28 38 22 -2 28 -9 30 -34z"/>
 <path d="M1710 1910 c0 -97 2 -112 20 -130 25 -25 61 -26 91 -1 23 18 24 26 24 127 0 96 -2 109 -17 112 -16 3 -18 -7 -18 -96 0 -104 -11 -132 -45 -118 -12 4 -15 24 -15 95 0 98 -5 121 -26 121 -11 0 -14 -23 -14 -110z"/>
 <path d="M1900 2000 c-17 -17 -20 -33 -20 -110 0 -77 3 -93 20 -110 27 -27 66 -25 95 5 22 21 25 33 25 103 0 65 -4 84 -21 106 -25 32 -70 35 -99 6z m68 -32 c18 -18 16 -142 -3 -158 -32 -27 -45 -5 -45 78 0 43 3 82 7 85 10 11 28 8 41 -5z"/>
 <path d="M2055 2008 c-3 -8 -4 -66 -3 -129 2 -93 6 -114 18 -114 13 0 15 20 15 124 0 91 -3 125 -12 128 -7 3 -15 -2 -18 -9z"/>
 <path d="M2140 2000 c-11 -11 -20 -26 -20 -34 0 -26 22 -29 40 -6 11 15 23 21 34 17 25 -10 20 -22 -29 -77 -50 -56 -57 -88 -25 -120 28 -28 64 -25 90 7 23 29 22 46 -2 51 -10 2 -19 -6 -23 -18 -4 -13 -13 -20 -23 -18 -30 6 -24 36 13 74 46 45 59 78 44 107 -23 43 -66 50 -99 17z"/>
 <path d="M2282 1893 l3 -128 55 0 c42 0 55 3 55 15 0 10 -12 16 -37 18 -36 3 -38 5 -38 37 0 29 4 34 27 37 17 2 29 10 31 21 3 13 -3 17 -27 17 -29 0 -31 3 -31 34 0 33 2 35 37 38 27 2 39 8 41 21 3 15 -5 17 -58 17 l-61 0 3 -127z"/>
 <path d="M1173 1646 c-146 -54 -248 -153 -267 -258 -4 -20 -13 -39 -21 -42 -21 -8 -21 -124 0 -132 10 -4 15 -21 15 -54 0 -33 -5 -50 -15 -54 -11 -4 -15 -21 -15 -66 0 -47 3 -60 15 -60 12 0 15 -13 15 -59 0 -38 5 -65 14 -74 8 -8 45 -22 83 -31 37 -9 85 -22 106 -27 l38 -10 -3 -137 -3 -137 -45 -5 c-38 -4 -46 -9 -48 -28 -7 -49 4 -52 233 -52 229 0 240 3 233 52 -2 19 -10 24 -48 28 l-45 5 -3 137 -3 137 38 10 c21 5 70 18 108 27 39 9 76 24 83 32 7 10 12 48 12 99 0 71 3 88 23 114 30 41 30 116 1 156 -16 21 -22 48 -26 113 -7 103 -26 147 -96 212 -53 50 -106 80 -191 109 -70 24 -112 23 -188 -5z m201 -76 c86 -36 148 -86 179 -144 21 -39 22 -52 22 -285 l0 -245 -145 -38 -145 -37 -152 36 -153 37 0 248 c0 225 2 252 19 286 31 61 100 113 195 148 80 30 94 30 180 -6z m-99 -815 c22 1 54 3 70 5 l30 5 3 -127 c3 -149 10 -141 -118 -136 l-75 3 -3 133 -3 133 28 -8 c15 -5 46 -8 68 -8z"/>
 <path d="M1192 1378 c-8 -8 -12 -66 -12 -194 0 -212 -2 -209 90 -202 102 7 130 54 129 213 0 101 -15 143 -58 172 -38 26 -128 32 -149 11z m128 -68 c17 -17 20 -33 20 -125 0 -118 -13 -145 -70 -145 l-30 0 0 145 0 145 30 0 c17 0 39 -9 50 -20z"/>
 </g>

</svg>